<svg width="545" height="484" viewBox="0 0 545 484" fill="none" xmlns="http://www.w3.org/2000/svg">
<g clip-path="url(#clip0_6756_1536)">
<path d="M544.27 483.46H527.271V466.194H544.27V483.46Z" fill="#1C2225" fill-opacity="0.2"/>
<path d="M527.271 483.46H510.273V466.194H527.271V483.46Z" fill="#1C2225" fill-opacity="0.2"/>
<path d="M459.279 483.46H442.281V466.194H459.279V483.46Z" fill="#1C2225" fill-opacity="0.2"/>
<path d="M442.281 483.46H425.283V466.194H442.281V483.46Z" fill="#1C2225" fill-opacity="0.2"/>
<path d="M425.282 483.46H408.284V466.194H425.282V483.46Z" fill="#1C2225" fill-opacity="0.2"/>
<path d="M323.295 483.46H306.297V466.194H323.295V483.46Z" fill="#1C2225" fill-opacity="0.2"/>
<path d="M221.311 483.46H204.312V466.194H221.311V483.46Z" fill="#1C2225" fill-opacity="0.2"/>
<path d="M119.322 483.46H102.324V466.194H119.322V483.46Z" fill="#1C2225" fill-opacity="0.2"/>
<path d="M102.324 483.46H85.3262V466.194H102.324V483.46Z" fill="#1C2225" fill-opacity="0.2"/>
<path d="M85.3262 483.46H68.3281V466.194H85.3262V483.46Z" fill="#1C2225" fill-opacity="0.2"/>
<path d="M17.334 483.46H0.335938V466.194H17.334V483.46Z" fill="#1C2225" fill-opacity="0.2"/>
<path d="M544.27 466.194H527.271V448.927H544.27V466.194Z" fill="#1C2225" fill-opacity="0.2"/>
<path d="M476.276 466.194H459.278V448.927H476.276V466.194Z" fill="#1C2225" fill-opacity="0.2"/>
<path d="M459.279 466.194H442.281V448.927H459.279V466.194Z" fill="#1C2225" fill-opacity="0.2"/>
<path d="M442.281 466.194H425.283V448.927H442.281V466.194Z" fill="#1C2225" fill-opacity="0.2"/>
<path d="M323.295 466.194H306.297V448.927H323.295V466.194Z" fill="#1C2225" fill-opacity="0.2"/>
<path d="M306.297 466.194H289.299V448.927H306.297V466.194Z" fill="#1C2225" fill-opacity="0.2"/>
<path d="M238.309 466.194H221.311V448.928H238.309V466.194Z" fill="#1C2225" fill-opacity="0.2"/>
<path d="M221.311 466.194H204.312V448.928H221.311V466.194Z" fill="#1C2225" fill-opacity="0.2"/>
<path d="M102.324 466.194H85.3262V448.928H102.324V466.194Z" fill="#1C2225" fill-opacity="0.2"/>
<path d="M85.3262 466.194H68.3281V448.928H85.3262V466.194Z" fill="#1C2225" fill-opacity="0.2"/>
<path d="M68.3281 466.194H51.3301V448.928H68.3281V466.194Z" fill="#1C2225" fill-opacity="0.2"/>
<path d="M493.275 448.927H476.277V431.661H493.275V448.927Z" fill="#1C2225" fill-opacity="0.2"/>
<path d="M476.276 448.927H459.278V431.661H476.276V448.927Z" fill="#1C2225" fill-opacity="0.2"/>
<path d="M459.279 448.927H442.281V431.661H459.279V448.927Z" fill="#1C2225" fill-opacity="0.2"/>
<path d="M323.295 448.927H306.297V431.661H323.295V448.927Z" fill="#1C2225" fill-opacity="0.2"/>
<path d="M306.297 448.927H289.299V431.661H306.297V448.927Z" fill="#1C2225" fill-opacity="0.2"/>
<path d="M289.298 448.927H272.3V431.661H289.298V448.927Z" fill="#1C2225" fill-opacity="0.2"/>
<path d="M255.307 448.927H238.309V431.661H255.307V448.927Z" fill="#1C2225" fill-opacity="0.2"/>
<path d="M238.309 448.927H221.311V431.661H238.309V448.927Z" fill="#1C2225" fill-opacity="0.2"/>
<path d="M221.311 448.927H204.312V431.661H221.311V448.927Z" fill="#1C2225" fill-opacity="0.2"/>
<path d="M85.3262 448.927H68.3281V431.661H85.3262V448.927Z" fill="#1C2225" fill-opacity="0.2"/>
<path d="M68.3281 448.927H51.3301V431.661H68.3281V448.927Z" fill="#1C2225" fill-opacity="0.2"/>
<path d="M51.3301 448.927H34.332V431.661H51.3301V448.927Z" fill="#1C2225" fill-opacity="0.2"/>
<path d="M510.272 431.661H493.274V414.395H510.272V431.661Z" fill="#1C2225" fill-opacity="0.2"/>
<path d="M493.275 431.661H476.277V414.395H493.275V431.661Z" fill="#1C2225" fill-opacity="0.2"/>
<path d="M476.276 431.661H459.278V414.395H476.276V431.661Z" fill="#1C2225" fill-opacity="0.2"/>
<path d="M391.287 431.661H374.289V414.395H391.287V431.661Z" fill="#1C2225" fill-opacity="0.2"/>
<path d="M374.289 431.661H357.291V414.395H374.289V431.661Z" fill="#1C2225" fill-opacity="0.2"/>
<path d="M357.291 431.661H340.293V414.395H357.291V431.661Z" fill="#1C2225" fill-opacity="0.2"/>
<path d="M306.297 431.661H289.299V414.395H306.297V431.661Z" fill="#1C2225" fill-opacity="0.2"/>
<path d="M289.298 431.661H272.3V414.395H289.298V431.661Z" fill="#1C2225" fill-opacity="0.2"/>
<path d="M255.307 431.661H238.309V414.395H255.307V431.661Z" fill="#1C2225" fill-opacity="0.2"/>
<path d="M238.309 431.661H221.311V414.395H238.309V431.661Z" fill="#1C2225" fill-opacity="0.2"/>
<path d="M187.314 431.661H170.316V414.395H187.314V431.661Z" fill="#1C2225" fill-opacity="0.2"/>
<path d="M170.316 431.661H153.318V414.395H170.316V431.661Z" fill="#1C2225" fill-opacity="0.2"/>
<path d="M153.318 431.661H136.32V414.395H153.318V431.661Z" fill="#1C2225" fill-opacity="0.2"/>
<path d="M68.3281 431.661H51.3301V414.395H68.3281V431.661Z" fill="#1C2225" fill-opacity="0.2"/>
<path d="M51.3301 431.661H34.332V414.395H51.3301V431.661Z" fill="#1C2225" fill-opacity="0.2"/>
<path d="M34.332 431.661H17.334V414.395H34.332V431.661Z" fill="#1C2225" fill-opacity="0.2"/>
<path d="M527.271 414.395H510.273V397.128H527.271V414.395Z" fill="#1C2225" fill-opacity="0.2"/>
<path d="M510.272 414.395H493.274V397.128H510.272V414.395Z" fill="#1C2225" fill-opacity="0.2"/>
<path d="M493.275 414.395H476.277V397.128H493.275V414.395Z" fill="#1C2225" fill-opacity="0.2"/>
<path d="M374.289 414.395H357.291V397.128H374.289V414.395Z" fill="#1C2225" fill-opacity="0.2"/>
<path d="M357.291 414.395H340.293V397.128H357.291V414.395Z" fill="#1C2225" fill-opacity="0.2"/>
<path d="M340.293 414.395H323.295V397.128H340.293V414.395Z" fill="#1C2225" fill-opacity="0.2"/>
<path d="M289.298 414.395H272.3V397.128H289.298V414.395Z" fill="#1C2225" fill-opacity="0.2"/>
<path d="M255.307 414.395H238.309V397.128H255.307V414.395Z" fill="#1C2225" fill-opacity="0.2"/>
<path d="M204.312 414.395H187.314V397.128H204.312V414.395Z" fill="#1C2225" fill-opacity="0.2"/>
<path d="M187.314 414.395H170.316V397.128H187.314V414.395Z" fill="#1C2225" fill-opacity="0.2"/>
<path d="M170.316 414.395H153.318V397.128H170.316V414.395Z" fill="#1C2225" fill-opacity="0.2"/>
<path d="M51.3301 414.395H34.332V397.128H51.3301V414.395Z" fill="#1C2225" fill-opacity="0.2"/>
<path d="M34.332 414.395H17.334V397.128H34.332V414.395Z" fill="#1C2225" fill-opacity="0.2"/>
<path d="M17.334 414.395H0.335938V397.128H17.334V414.395Z" fill="#1C2225" fill-opacity="0.2"/>
<path d="M527.271 397.128H510.273V379.862H527.271V397.128Z" fill="#1C2225" fill-opacity="0.2"/>
<path d="M510.272 397.128H493.274V379.862H510.272V397.128Z" fill="#1C2225" fill-opacity="0.2"/>
<path d="M357.291 397.128H340.293V379.862H357.291V397.128Z" fill="#1C2225" fill-opacity="0.2"/>
<path d="M340.293 397.128H323.295V379.862H340.293V397.128Z" fill="#1C2225" fill-opacity="0.2"/>
<path d="M323.295 397.128H306.297V379.862H323.295V397.128Z" fill="#1C2225" fill-opacity="0.2"/>
<path d="M221.311 397.128H204.312V379.862H221.311V397.128Z" fill="#1C2225" fill-opacity="0.2"/>
<path d="M204.312 397.128H187.314V379.862H204.312V397.128Z" fill="#1C2225" fill-opacity="0.2"/>
<path d="M187.314 397.128H170.316V379.862H187.314V397.128Z" fill="#1C2225" fill-opacity="0.2"/>
<path d="M34.332 397.128H17.334V379.862H34.332V397.128Z" fill="#1C2225" fill-opacity="0.2"/>
<path d="M17.334 397.128H0.335938V379.862H17.334V397.128Z" fill="#1C2225" fill-opacity="0.2"/>
<path d="M527.271 379.862H510.273V362.595H527.271V379.862Z" fill="#1C2225" fill-opacity="0.2"/>
<path d="M442.281 379.862H425.283V362.595H442.281V379.862Z" fill="#1C2225" fill-opacity="0.2"/>
<path d="M289.298 379.862H272.3V362.595H289.298V379.862Z" fill="#1C2225" fill-opacity="0.2"/>
<path d="M255.307 379.862H238.309V362.595H255.307V379.862Z" fill="#1C2225" fill-opacity="0.2"/>
<path d="M102.324 379.862H85.3262V362.595H102.324V379.862Z" fill="#1C2225" fill-opacity="0.2"/>
<path d="M17.334 379.862H0.335938V362.595H17.334V379.862Z" fill="#1C2225" fill-opacity="0.2"/>
<path d="M442.281 362.595H425.283V345.329H442.281V362.595Z" fill="#1C2225" fill-opacity="0.2"/>
<path d="M425.282 362.595H408.284V345.329H425.282V362.595Z" fill="#1C2225" fill-opacity="0.2"/>
<path d="M306.297 362.595H289.299V345.329H306.297V362.595Z" fill="#1C2225" fill-opacity="0.2"/>
<path d="M289.298 362.595H272.3V345.329H289.298V362.595Z" fill="#1C2225" fill-opacity="0.2"/>
<path d="M255.307 362.595H238.309V345.329H255.307V362.595Z" fill="#1C2225" fill-opacity="0.2"/>
<path d="M238.309 362.595H221.311V345.329H238.309V362.595Z" fill="#1C2225" fill-opacity="0.2"/>
<path d="M119.322 362.595H102.324V345.329H119.322V362.595Z" fill="#1C2225" fill-opacity="0.2"/>
<path d="M102.324 362.595H85.3262V345.329H102.324V362.595Z" fill="#1C2225" fill-opacity="0.2"/>
<path d="M442.281 345.329H425.283V328.062H442.281V345.329Z" fill="#1C2225" fill-opacity="0.2"/>
<path d="M425.282 345.329H408.284V328.062H425.282V345.329Z" fill="#1C2225" fill-opacity="0.2"/>
<path d="M408.284 345.329H391.286V328.062H408.284V345.329Z" fill="#1C2225" fill-opacity="0.2"/>
<path d="M323.295 345.329H306.297V328.062H323.295V345.329Z" fill="#1C2225" fill-opacity="0.2"/>
<path d="M306.297 345.329H289.299V328.062H306.297V345.329Z" fill="#1C2225" fill-opacity="0.2"/>
<path d="M238.309 345.329H221.311V328.062H238.309V345.329Z" fill="#1C2225" fill-opacity="0.2"/>
<path d="M221.311 345.329H204.312V328.062H221.311V345.329Z" fill="#1C2225" fill-opacity="0.2"/>
<path d="M136.32 345.329H119.322V328.062H136.32V345.329Z" fill="#1C2225" fill-opacity="0.2"/>
<path d="M119.322 345.329H102.324V328.062H119.322V345.329Z" fill="#1C2225" fill-opacity="0.2"/>
<path d="M102.324 345.329H85.3262V328.062H102.324V345.329Z" fill="#1C2225" fill-opacity="0.2"/>
<path d="M425.282 328.062H408.284V310.796H425.282V328.062Z" fill="#1C2225" fill-opacity="0.2"/>
<path d="M408.284 328.062H391.286V310.796H408.284V328.062Z" fill="#1C2225" fill-opacity="0.2"/>
<path d="M340.293 328.062H323.295V310.796H340.293V328.062Z" fill="#1C2225" fill-opacity="0.2"/>
<path d="M323.295 328.062H306.297V310.796H323.295V328.062Z" fill="#1C2225" fill-opacity="0.2"/>
<path d="M221.311 328.062H204.312V310.796H221.311V328.062Z" fill="#1C2225" fill-opacity="0.2"/>
<path d="M204.312 328.062H187.314V310.796H204.312V328.062Z" fill="#1C2225" fill-opacity="0.2"/>
<path d="M136.32 328.062H119.322V310.796H136.32V328.062Z" fill="#1C2225" fill-opacity="0.2"/>
<path d="M119.322 328.062H102.324V310.796H119.322V328.062Z" fill="#1C2225" fill-opacity="0.2"/>
<path d="M493.275 310.796H476.277V293.53H493.275V310.796Z" fill="#1C2225" fill-opacity="0.2"/>
<path d="M476.276 310.796H459.278V293.53H476.276V310.796Z" fill="#1C2225" fill-opacity="0.2"/>
<path d="M459.279 310.796H442.281V293.53H459.279V310.796Z" fill="#1C2225" fill-opacity="0.2"/>
<path d="M408.284 310.796H391.286V293.53H408.284V310.796Z" fill="#1C2225" fill-opacity="0.2"/>
<path d="M357.291 310.796H340.293V293.53H357.291V310.796Z" fill="#1C2225" fill-opacity="0.2"/>
<path d="M340.293 310.796H323.295V293.53H340.293V310.796Z" fill="#1C2225" fill-opacity="0.2"/>
<path d="M204.312 310.796H187.314V293.53H204.312V310.796Z" fill="#1C2225" fill-opacity="0.2"/>
<path d="M187.314 310.796H170.316V293.53H187.314V310.796Z" fill="#1C2225" fill-opacity="0.2"/>
<path d="M136.32 310.796H119.322V293.53H136.32V310.796Z" fill="#1C2225" fill-opacity="0.2"/>
<path d="M85.3262 310.796H68.3281V293.53H85.3262V310.796Z" fill="#1C2225" fill-opacity="0.2"/>
<path d="M68.3281 310.796H51.3301V293.53H68.3281V310.796Z" fill="#1C2225" fill-opacity="0.2"/>
<path d="M51.3301 310.796H34.332V293.53H51.3301V310.796Z" fill="#1C2225" fill-opacity="0.2"/>
<path d="M544.27 293.53H527.271V276.263H544.27V293.53Z" fill="#1C2225" fill-opacity="0.2"/>
<path d="M476.276 293.53H459.278V276.263H476.276V293.53Z" fill="#1C2225" fill-opacity="0.2"/>
<path d="M459.279 293.53H442.281V276.263H459.279V293.53Z" fill="#1C2225" fill-opacity="0.2"/>
<path d="M442.281 293.53H425.283V276.263H442.281V293.53Z" fill="#1C2225" fill-opacity="0.2"/>
<path d="M374.289 293.53H357.291V276.263H374.289V293.53Z" fill="#1C2225" fill-opacity="0.2"/>
<path d="M357.291 293.53H340.293V276.263H357.291V293.53Z" fill="#1C2225" fill-opacity="0.2"/>
<path d="M187.314 293.53H170.316V276.263H187.314V293.53Z" fill="#1C2225" fill-opacity="0.2"/>
<path d="M170.316 293.53H153.318V276.263H170.316V293.53Z" fill="#1C2225" fill-opacity="0.2"/>
<path d="M102.324 293.53H85.3262V276.263H102.324V293.53Z" fill="#1C2225" fill-opacity="0.2"/>
<path d="M85.3262 293.53H68.3281V276.263H85.3262V293.53Z" fill="#1C2225" fill-opacity="0.2"/>
<path d="M68.3281 293.53H51.3301V276.263H68.3281V293.53Z" fill="#1C2225" fill-opacity="0.2"/>
<path d="M544.27 276.263H527.271V258.997H544.27V276.263Z" fill="#1C2225" fill-opacity="0.2"/>
<path d="M527.271 276.263H510.273V258.997H527.271V276.263Z" fill="#1C2225" fill-opacity="0.2"/>
<path d="M459.279 276.263H442.281V258.997H459.279V276.263Z" fill="#1C2225" fill-opacity="0.2"/>
<path d="M442.281 276.263H425.283V258.997H442.281V276.263Z" fill="#1C2225" fill-opacity="0.2"/>
<path d="M425.282 276.263H408.284V258.997H425.282V276.263Z" fill="#1C2225" fill-opacity="0.2"/>
<path d="M391.287 276.263H374.289V258.997H391.287V276.263Z" fill="#1C2225" fill-opacity="0.2"/>
<path d="M374.289 276.263H357.291V258.997H374.289V276.263Z" fill="#1C2225" fill-opacity="0.2"/>
<path d="M272.305 276.263H255.307V258.997H272.305V276.263Z" fill="#1C2225" fill-opacity="0.2"/>
<path d="M170.316 276.263H153.318V258.997H170.316V276.263Z" fill="#1C2225" fill-opacity="0.2"/>
<path d="M153.318 276.263H136.32V258.997H153.318V276.263Z" fill="#1C2225" fill-opacity="0.2"/>
<path d="M119.322 276.263H102.324V258.997H119.322V276.263Z" fill="#1C2225" fill-opacity="0.2"/>
<path d="M102.324 276.263H85.3262V258.997H102.324V276.263Z" fill="#1C2225" fill-opacity="0.2"/>
<path d="M85.3262 276.263H68.3281V258.997H85.3262V276.263Z" fill="#1C2225" fill-opacity="0.2"/>
<path d="M16.998 258.997H0V241.73H16.998V258.997Z" fill="#1C2225" fill-opacity="0.2"/>
<path d="M34.332 258.997H17.334V241.73H34.332V258.997Z" fill="#1C2225" fill-opacity="0.2"/>
<path d="M16.998 276.263H0V258.997H16.998V276.263Z" fill="#1C2225" fill-opacity="0.2"/>
<path d="M16.998 241.73H0V224.464H16.998V241.73Z" fill="#1C2225" fill-opacity="0.2"/>
<path d="M544.27 258.997H527.271V241.73H544.27V258.997Z" fill="#1C2225" fill-opacity="0.2"/>
<path d="M527.271 258.997H510.273V241.73H527.271V258.997Z" fill="#1C2225" fill-opacity="0.2"/>
<path d="M510.272 258.997H493.274V241.73H510.272V258.997Z" fill="#1C2225" fill-opacity="0.2"/>
<path d="M289.298 258.997H272.3V241.73H289.298V258.997Z" fill="#1C2225" fill-opacity="0.2"/>
<path d="M272.305 258.997H255.307V241.73H272.305V258.997Z" fill="#1C2225" fill-opacity="0.2"/>
<path d="M255.307 258.997H238.309V241.73H255.307V258.997Z" fill="#1C2225" fill-opacity="0.2"/>
<path d="M544.27 241.73H527.271V224.464H544.27V241.73Z" fill="#1C2225" fill-opacity="0.2"/>
<path d="M527.271 241.73H510.273V224.464H527.271V241.73Z" fill="#1C2225" fill-opacity="0.2"/>
<path d="M459.279 241.73H442.281V224.464H459.279V241.73Z" fill="#1C2225" fill-opacity="0.2"/>
<path d="M442.281 241.73H425.283V224.464H442.281V241.73Z" fill="#1C2225" fill-opacity="0.2"/>
<path d="M425.282 241.73H408.284V224.464H425.282V241.73Z" fill="#1C2225" fill-opacity="0.2"/>
<path d="M391.287 241.73H374.289V224.464H391.287V241.73Z" fill="#1C2225" fill-opacity="0.2"/>
<path d="M374.289 241.73H357.291V224.464H374.289V241.73Z" fill="#1C2225" fill-opacity="0.2"/>
<path d="M272.305 241.73H255.307V224.464H272.305V241.73Z" fill="#1C2225" fill-opacity="0.2"/>
<path d="M170.316 241.73H153.318V224.464H170.316V241.73Z" fill="#1C2225" fill-opacity="0.2"/>
<path d="M153.318 241.73H136.32V224.464H153.318V241.73Z" fill="#1C2225" fill-opacity="0.2"/>
<path d="M119.322 241.73H102.324V224.464H119.322V241.73Z" fill="#1C2225" fill-opacity="0.2"/>
<path d="M102.324 241.73H85.3262V224.464H102.324V241.73Z" fill="#1C2225" fill-opacity="0.2"/>
<path d="M85.3262 241.73H68.3281V224.464H85.3262V241.73Z" fill="#1C2225" fill-opacity="0.2"/>
<path d="M544.27 224.464H527.271V207.197H544.27V224.464Z" fill="#1C2225" fill-opacity="0.2"/>
<path d="M476.276 224.464H459.278V207.197H476.276V224.464Z" fill="#1C2225" fill-opacity="0.2"/>
<path d="M459.279 224.464H442.281V207.197H459.279V224.464Z" fill="#1C2225" fill-opacity="0.2"/>
<path d="M442.281 224.464H425.283V207.197H442.281V224.464Z" fill="#1C2225" fill-opacity="0.2"/>
<path d="M374.289 224.464H357.291V207.197H374.289V224.464Z" fill="#1C2225" fill-opacity="0.2"/>
<path d="M357.291 224.464H340.293V207.197H357.291V224.464Z" fill="#1C2225" fill-opacity="0.2"/>
<path d="M187.314 224.464H170.316V207.197H187.314V224.464Z" fill="#1C2225" fill-opacity="0.2"/>
<path d="M170.316 224.464H153.318V207.197H170.316V224.464Z" fill="#1C2225" fill-opacity="0.2"/>
<path d="M102.324 224.464H85.3262V207.197H102.324V224.464Z" fill="#1C2225" fill-opacity="0.2"/>
<path d="M85.3262 224.464H68.3281V207.197H85.3262V224.464Z" fill="#1C2225" fill-opacity="0.2"/>
<path d="M68.3281 224.464H51.3301V207.197H68.3281V224.464Z" fill="#1C2225" fill-opacity="0.2"/>
<path d="M493.275 207.197H476.277V189.931H493.275V207.197Z" fill="#1C2225" fill-opacity="0.2"/>
<path d="M476.276 207.197H459.278V189.931H476.276V207.197Z" fill="#1C2225" fill-opacity="0.2"/>
<path d="M459.279 207.197H442.281V189.931H459.279V207.197Z" fill="#1C2225" fill-opacity="0.2"/>
<path d="M408.284 207.197H391.286V189.931H408.284V207.197Z" fill="#1C2225" fill-opacity="0.2"/>
<path d="M357.291 207.197H340.293V189.931H357.291V207.197Z" fill="#1C2225" fill-opacity="0.2"/>
<path d="M340.293 207.197H323.295V189.931H340.293V207.197Z" fill="#1C2225" fill-opacity="0.2"/>
<path d="M204.312 207.197H187.314V189.931H204.312V207.197Z" fill="#1C2225" fill-opacity="0.2"/>
<path d="M187.314 207.197H170.316V189.931H187.314V207.197Z" fill="#1C2225" fill-opacity="0.2"/>
<path d="M136.32 207.197H119.322V189.931H136.32V207.197Z" fill="#1C2225" fill-opacity="0.2"/>
<path d="M85.3262 207.197H68.3281V189.931H85.3262V207.197Z" fill="#1C2225" fill-opacity="0.2"/>
<path d="M68.3281 207.197H51.3301V189.931H68.3281V207.197Z" fill="#1C2225" fill-opacity="0.2"/>
<path d="M51.3301 207.197H34.332V189.931H51.3301V207.197Z" fill="#1C2225" fill-opacity="0.2"/>
<path d="M425.282 189.931H408.284V172.664H425.282V189.931Z" fill="#1C2225" fill-opacity="0.2"/>
<path d="M408.284 189.931H391.286V172.664H408.284V189.931Z" fill="#1C2225" fill-opacity="0.2"/>
<path d="M340.293 189.931H323.295V172.664H340.293V189.931Z" fill="#1C2225" fill-opacity="0.2"/>
<path d="M323.295 189.931H306.297V172.664H323.295V189.931Z" fill="#1C2225" fill-opacity="0.2"/>
<path d="M221.311 189.931H204.312V172.664H221.311V189.931Z" fill="#1C2225" fill-opacity="0.2"/>
<path d="M204.312 189.931H187.314V172.664H204.312V189.931Z" fill="#1C2225" fill-opacity="0.2"/>
<path d="M136.32 189.931H119.322V172.664H136.32V189.931Z" fill="#1C2225" fill-opacity="0.2"/>
<path d="M119.322 189.931H102.324V172.664H119.322V189.931Z" fill="#1C2225" fill-opacity="0.2"/>
<path d="M442.281 172.664H425.283V155.398H442.281V172.664Z" fill="#1C2225" fill-opacity="0.2"/>
<path d="M425.282 172.664H408.284V155.398H425.282V172.664Z" fill="#1C2225" fill-opacity="0.2"/>
<path d="M408.284 172.664H391.286V155.398H408.284V172.664Z" fill="#1C2225" fill-opacity="0.2"/>
<path d="M323.295 172.664H306.297V155.398H323.295V172.664Z" fill="#1C2225" fill-opacity="0.2"/>
<path d="M306.297 172.664H289.299V155.398H306.297V172.664Z" fill="#1C2225" fill-opacity="0.2"/>
<path d="M238.309 172.664H221.311V155.398H238.309V172.664Z" fill="#1C2225" fill-opacity="0.2"/>
<path d="M221.311 172.664H204.312V155.398H221.311V172.664Z" fill="#1C2225" fill-opacity="0.2"/>
<path d="M136.32 172.664H119.322V155.398H136.32V172.664Z" fill="#1C2225" fill-opacity="0.2"/>
<path d="M119.322 172.664H102.324V155.398H119.322V172.664Z" fill="#1C2225" fill-opacity="0.2"/>
<path d="M102.324 172.664H85.3262V155.398H102.324V172.664Z" fill="#1C2225" fill-opacity="0.2"/>
<path d="M442.281 155.398H425.283V138.132H442.281V155.398Z" fill="#1C2225" fill-opacity="0.2"/>
<path d="M425.282 155.398H408.284V138.132H425.282V155.398Z" fill="#1C2225" fill-opacity="0.2"/>
<path d="M306.297 155.398H289.299V138.132H306.297V155.398Z" fill="#1C2225" fill-opacity="0.2"/>
<path d="M289.298 155.398H272.3V138.132H289.298V155.398Z" fill="#1C2225" fill-opacity="0.2"/>
<path d="M255.307 155.398H238.309V138.132H255.307V155.398Z" fill="#1C2225" fill-opacity="0.2"/>
<path d="M238.309 155.398H221.311V138.132H238.309V155.398Z" fill="#1C2225" fill-opacity="0.2"/>
<path d="M119.322 155.398H102.324V138.132H119.322V155.398Z" fill="#1C2225" fill-opacity="0.2"/>
<path d="M102.324 155.398H85.3262V138.132H102.324V155.398Z" fill="#1C2225" fill-opacity="0.2"/>
<path d="M442.281 138.132H425.283V120.865H442.281V138.132Z" fill="#1C2225" fill-opacity="0.2"/>
<path d="M289.298 138.132H272.3V120.865H289.298V138.132Z" fill="#1C2225" fill-opacity="0.2"/>
<path d="M255.307 138.132H238.309V120.865H255.307V138.132Z" fill="#1C2225" fill-opacity="0.2"/>
<path d="M102.324 138.132H85.3262V120.865H102.324V138.132Z" fill="#1C2225" fill-opacity="0.2"/>
<path d="M527.271 120.865H510.273V103.599H527.271V120.865Z" fill="#1C2225" fill-opacity="0.2"/>
<path d="M17.334 120.865H0.335938V103.599H17.334V120.865Z" fill="#1C2225" fill-opacity="0.2"/>
<path d="M527.271 103.599H510.273V86.3322H527.271V103.599Z" fill="#1C2225" fill-opacity="0.2"/>
<path d="M510.272 103.599H493.274V86.3322H510.272V103.599Z" fill="#1C2225" fill-opacity="0.2"/>
<path d="M357.291 103.599H340.293V86.3322H357.291V103.599Z" fill="#1C2225" fill-opacity="0.2"/>
<path d="M340.293 103.599H323.295V86.3322H340.293V103.599Z" fill="#1C2225" fill-opacity="0.2"/>
<path d="M323.295 103.599H306.297V86.3322H323.295V103.599Z" fill="#1C2225" fill-opacity="0.2"/>
<path d="M221.311 103.599H204.312V86.3322H221.311V103.599Z" fill="#1C2225" fill-opacity="0.2"/>
<path d="M204.312 103.599H187.314V86.3322H204.312V103.599Z" fill="#1C2225" fill-opacity="0.2"/>
<path d="M187.314 103.599H170.316V86.3322H187.314V103.599Z" fill="#1C2225" fill-opacity="0.2"/>
<path d="M34.332 103.599H17.334V86.3322H34.332V103.599Z" fill="#1C2225" fill-opacity="0.2"/>
<path d="M17.334 103.599H0.335938V86.3322H17.334V103.599Z" fill="#1C2225" fill-opacity="0.2"/>
<path d="M527.271 86.3322H510.273V69.0657H527.271V86.3322Z" fill="#1C2225" fill-opacity="0.2"/>
<path d="M510.272 86.3322H493.274V69.0657H510.272V86.3322Z" fill="#1C2225" fill-opacity="0.2"/>
<path d="M493.275 86.3322H476.277V69.0657H493.275V86.3322Z" fill="#1C2225" fill-opacity="0.2"/>
<path d="M374.289 86.3322H357.291V69.0657H374.289V86.3322Z" fill="#1C2225" fill-opacity="0.2"/>
<path d="M357.291 86.3322H340.293V69.0657H357.291V86.3322Z" fill="#1C2225" fill-opacity="0.2"/>
<path d="M340.293 86.3322H323.295V69.0657H340.293V86.3322Z" fill="#1C2225" fill-opacity="0.2"/>
<path d="M289.298 86.3322H272.3V69.0657H289.298V86.3322Z" fill="#1C2225" fill-opacity="0.2"/>
<path d="M255.307 86.3322H238.309V69.0657H255.307V86.3322Z" fill="#1C2225" fill-opacity="0.2"/>
<path d="M204.312 86.3322H187.314V69.0657H204.312V86.3322Z" fill="#1C2225" fill-opacity="0.2"/>
<path d="M187.314 86.3322H170.316V69.0657H187.314V86.3322Z" fill="#1C2225" fill-opacity="0.2"/>
<path d="M170.316 86.3322H153.318V69.0657H170.316V86.3322Z" fill="#1C2225" fill-opacity="0.2"/>
<path d="M51.3301 86.3322H34.332V69.0657H51.3301V86.3322Z" fill="#1C2225" fill-opacity="0.2"/>
<path d="M34.332 86.3322H17.334V69.0657H34.332V86.3322Z" fill="#1C2225" fill-opacity="0.2"/>
<path d="M17.334 86.3322H0.335938V69.0657H17.334V86.3322Z" fill="#1C2225" fill-opacity="0.2"/>
<path d="M510.272 69.0657H493.274V51.7992H510.272V69.0657Z" fill="#1C2225" fill-opacity="0.2"/>
<path d="M493.275 69.0657H476.277V51.7992H493.275V69.0657Z" fill="#1C2225" fill-opacity="0.2"/>
<path d="M476.276 69.0657H459.278V51.7992H476.276V69.0657Z" fill="#1C2225" fill-opacity="0.2"/>
<path d="M391.287 69.0657H374.289V51.7992H391.287V69.0657Z" fill="#1C2225" fill-opacity="0.2"/>
<path d="M374.289 69.0657H357.291V51.7992H374.289V69.0657Z" fill="#1C2225" fill-opacity="0.2"/>
<path d="M357.291 69.0657H340.293V51.7992H357.291V69.0657Z" fill="#1C2225" fill-opacity="0.2"/>
<path d="M306.297 69.0657H289.299V51.7992H306.297V69.0657Z" fill="#1C2225" fill-opacity="0.2"/>
<path d="M289.298 69.0657H272.3V51.7992H289.298V69.0657Z" fill="#1C2225" fill-opacity="0.2"/>
<path d="M255.307 69.0657H238.309V51.7992H255.307V69.0657Z" fill="#1C2225" fill-opacity="0.2"/>
<path d="M238.309 69.0657H221.311V51.7992H238.309V69.0657Z" fill="#1C2225" fill-opacity="0.2"/>
<path d="M187.314 69.0657H170.316V51.7992H187.314V69.0657Z" fill="#1C2225" fill-opacity="0.2"/>
<path d="M170.316 69.0657H153.318V51.7992H170.316V69.0657Z" fill="#1C2225" fill-opacity="0.2"/>
<path d="M153.318 69.0657H136.32V51.7992H153.318V69.0657Z" fill="#1C2225" fill-opacity="0.2"/>
<path d="M68.3281 69.0657H51.3301V51.7992H68.3281V69.0657Z" fill="#1C2225" fill-opacity="0.2"/>
<path d="M51.3301 69.0657H34.332V51.7992H51.3301V69.0657Z" fill="#1C2225" fill-opacity="0.2"/>
<path d="M34.332 69.0657H17.334V51.7992H34.332V69.0657Z" fill="#1C2225" fill-opacity="0.2"/>
<path d="M493.275 51.7992H476.277V34.5328H493.275V51.7992Z" fill="#1C2225" fill-opacity="0.2"/>
<path d="M476.276 51.7992H459.278V34.5328H476.276V51.7992Z" fill="#1C2225" fill-opacity="0.2"/>
<path d="M459.279 51.7992H442.281V34.5328H459.279V51.7992Z" fill="#1C2225" fill-opacity="0.2"/>
<path d="M323.295 51.7992H306.297V34.5328H323.295V51.7992Z" fill="#1C2225" fill-opacity="0.2"/>
<path d="M306.297 51.7992H289.299V34.5328H306.297V51.7992Z" fill="#1C2225" fill-opacity="0.2"/>
<path d="M289.298 51.7992H272.3V34.5328H289.298V51.7992Z" fill="#1C2225" fill-opacity="0.2"/>
<path d="M255.307 51.7992H238.309V34.5328H255.307V51.7992Z" fill="#1C2225" fill-opacity="0.2"/>
<path d="M238.309 51.7992H221.311V34.5328H238.309V51.7992Z" fill="#1C2225" fill-opacity="0.2"/>
<path d="M221.311 51.7992H204.312V34.5328H221.311V51.7992Z" fill="#1C2225" fill-opacity="0.2"/>
<path d="M85.3262 51.7992H68.3281V34.5328H85.3262V51.7992Z" fill="#1C2225" fill-opacity="0.2"/>
<path d="M68.3281 51.7992H51.3301V34.5328H68.3281V51.7992Z" fill="#1C2225" fill-opacity="0.2"/>
<path d="M51.3301 51.7992H34.332V34.5328H51.3301V51.7992Z" fill="#1C2225" fill-opacity="0.2"/>
<path d="M544.27 34.5328H527.271V17.2664H544.27V34.5328Z" fill="#1C2225" fill-opacity="0.2"/>
<path d="M476.276 34.5328H459.278V17.2664H476.276V34.5328Z" fill="#1C2225" fill-opacity="0.2"/>
<path d="M459.279 34.5328H442.281V17.2664H459.279V34.5328Z" fill="#1C2225" fill-opacity="0.2"/>
<path d="M442.281 34.5328H425.283V17.2664H442.281V34.5328Z" fill="#1C2225" fill-opacity="0.2"/>
<path d="M323.295 34.5328H306.297V17.2664H323.295V34.5328Z" fill="#1C2225" fill-opacity="0.2"/>
<path d="M306.297 34.5328H289.299V17.2664H306.297V34.5328Z" fill="#1C2225" fill-opacity="0.2"/>
<path d="M238.309 34.5328H221.311V17.2664H238.309V34.5328Z" fill="#1C2225" fill-opacity="0.2"/>
<path d="M221.311 34.5328H204.312V17.2664H221.311V34.5328Z" fill="#1C2225" fill-opacity="0.2"/>
<path d="M102.324 34.5328H85.3262V17.2664H102.324V34.5328Z" fill="#1C2225" fill-opacity="0.2"/>
<path d="M85.3262 34.5328H68.3281V17.2664H85.3262V34.5328Z" fill="#1C2225" fill-opacity="0.2"/>
<path d="M68.3281 34.5328H51.3301V17.2664H68.3281V34.5328Z" fill="#1C2225" fill-opacity="0.2"/>
<path d="M544.27 17.2664H527.271V-8.39233e-05H544.27V17.2664Z" fill="#1C2225" fill-opacity="0.2"/>
<path d="M527.271 17.2664H510.273V-8.39233e-05H527.271V17.2664Z" fill="#1C2225" fill-opacity="0.2"/>
<path d="M459.279 17.2664H442.281V-8.39233e-05H459.279V17.2664Z" fill="#1C2225" fill-opacity="0.2"/>
<path d="M442.281 17.2664H425.283V-8.39233e-05H442.281V17.2664Z" fill="#1C2225" fill-opacity="0.2"/>
<path d="M425.282 17.2664H408.284V-8.39233e-05H425.282V17.2664Z" fill="#1C2225" fill-opacity="0.2"/>
<path d="M323.295 17.2664H306.297V-8.39233e-05H323.295V17.2664Z" fill="#1C2225" fill-opacity="0.2"/>
<path d="M221.311 17.2664H204.312V-8.39233e-05H221.311V17.2664Z" fill="#1C2225" fill-opacity="0.2"/>
<path d="M119.322 17.2664H102.324V-8.39233e-05H119.322V17.2664Z" fill="#1C2225" fill-opacity="0.2"/>
<path d="M102.324 17.2664H85.3262V-8.39233e-05H102.324V17.2664Z" fill="#1C2225" fill-opacity="0.2"/>
<path d="M85.3262 17.2664H68.3281V-8.39233e-05H85.3262V17.2664Z" fill="#1C2225" fill-opacity="0.2"/>
<path d="M17.334 17.2664H0.335938V-8.39233e-05H17.334V17.2664Z" fill="#1C2225" fill-opacity="0.2"/>
</g>
<defs>
<clipPath id="clip0_6756_1536">
<rect width="545" height="484" fill="white"/>
</clipPath>
</defs>
</svg>
